<svg xmlns="http://www.w3.org/2000/svg" viewBox="0 0 512 512" width="512" height="512" role="img" aria-label="kimik3 logo">
  <defs>
    <linearGradient id="kg" x1="0" y1="0" x2="1" y2="1">
      <stop offset="0" stop-color="#7c3aed"/>
      <stop offset="0.5" stop-color="#6366f1"/>
      <stop offset="1" stop-color="#0ea5e9"/>
    </linearGradient>
  </defs>
  <rect width="512" height="512" rx="116" fill="url(#kg)"/>
  <!-- lowercase k -->
  <text x="45%" y="52%" text-anchor="middle" dominant-baseline="central" font-family="Inter, ui-sans-serif, system-ui, -apple-system, Segoe UI, Roboto, sans-serif" font-size="330" font-weight="800" fill="#ffffff">k</text>
  <!-- AI spark (upper right) -->
  <path transform="translate(380,126)" d="M 0,-48 C 10.5,-10.5 10.5,-10.5 48,0 C 10.5,10.5 10.5,10.5 0,48 C -10.5,10.5 -10.5,10.5 -48,0 C -10.5,-10.5 -10.5,-10.5 0,-48 Z" fill="#ffffff"/>
  <!-- secondary spark -->
  <path transform="translate(150,372) scale(0.5)" d="M 0,-48 C 10.5,-10.5 10.5,-10.5 48,0 C 10.5,10.5 10.5,10.5 0,48 C -10.5,10.5 -10.5,10.5 -48,0 C -10.5,-10.5 -10.5,-10.5 0,-48 Z" fill="#ffffff" opacity="0.92"/>
</svg>
